<svg width="16" height="16" viewBox="0 0 16 16" fill="none" xmlns="http://www.w3.org/2000/svg">
<g clip-path="url(#clip0)">
<path d="M8 10C9.10457 10 10 9.10457 10 8C10 6.89543 9.10457 6 8 6C6.89543 6 6 6.89543 6 8C6 9.10457 6.89543 10 8 10Z" stroke="#FBFAFF" stroke-width="1.6" stroke-linecap="square"/>
<path d="M12.9334 9.99996C12.8447 10.201 12.8182 10.4241 12.8574 10.6404C12.8966 10.8566 12.9997 11.0562 13.1534 11.2133L13.1934 11.2533C13.3174 11.3771 13.4157 11.5242 13.4828 11.686C13.5499 11.8479 13.5845 12.0214 13.5845 12.1966C13.5845 12.3718 13.5499 12.5453 13.4828 12.7072C13.4157 12.8691 13.3174 13.0161 13.1934 13.14C13.0696 13.2639 12.9225 13.3623 12.7607 13.4294C12.5988 13.4965 12.4253 13.531 12.2501 13.531C12.0749 13.531 11.9014 13.4965 11.7395 13.4294C11.5776 13.3623 11.4306 13.2639 11.3067 13.14L11.2667 13.1C11.1096 12.9463 10.9101 12.8432 10.6938 12.804C10.4775 12.7647 10.2545 12.7912 10.0534 12.88C9.85623 12.9645 9.68807 13.1048 9.56962 13.2836C9.45117 13.4625 9.3876 13.6721 9.38675 13.8866V14C9.38675 14.3536 9.24627 14.6927 8.99622 14.9428C8.74617 15.1928 8.40704 15.3333 8.05341 15.3333C7.69979 15.3333 7.36065 15.1928 7.11061 14.9428C6.86056 14.6927 6.72008 14.3536 6.72008 14V13.94C6.71492 13.7193 6.64349 13.5053 6.51509 13.3258C6.38668 13.1462 6.20724 13.0095 6.00008 12.9333C5.799 12.8445 5.57595 12.8181 5.35969 12.8573C5.14343 12.8965 4.94387 12.9996 4.78675 13.1533L4.74675 13.1933C4.62292 13.3173 4.47587 13.4156 4.314 13.4827C4.15214 13.5498 3.97864 13.5843 3.80341 13.5843C3.62819 13.5843 3.45469 13.5498 3.29283 13.4827C3.13096 13.4156 2.98391 13.3173 2.86008 13.1933C2.73611 13.0695 2.63777 12.9224 2.57067 12.7605C2.50357 12.5987 2.46903 12.4252 2.46903 12.25C2.46903 12.0747 2.50357 11.9012 2.57067 11.7394C2.63777 11.5775 2.73611 11.4305 2.86008 11.3066L2.90008 11.2666C3.05377 11.1095 3.15687 10.9099 3.19608 10.6937C3.2353 10.4774 3.20882 10.2544 3.12008 10.0533C3.03557 9.85611 2.89525 9.68795 2.71639 9.5695C2.53753 9.45105 2.32794 9.38748 2.11341 9.38663H2.00008C1.64646 9.38663 1.30732 9.24615 1.05727 8.9961C0.807224 8.74605 0.666748 8.40691 0.666748 8.05329C0.666748 7.69967 0.807224 7.36053 1.05727 7.11048C1.30732 6.86043 1.64646 6.71996 2.00008 6.71996H2.06008C2.28074 6.7148 2.49475 6.64337 2.67428 6.51497C2.85381 6.38656 2.99056 6.20712 3.06675 5.99996C3.15549 5.79888 3.18196 5.57583 3.14275 5.35957C3.10354 5.1433 3.00044 4.94375 2.84675 4.78663L2.80675 4.74663C2.68278 4.62279 2.58443 4.47574 2.51733 4.31388C2.45024 4.15202 2.4157 3.97851 2.4157 3.80329C2.4157 3.62807 2.45024 3.45457 2.51733 3.29271C2.58443 3.13084 2.68278 2.98379 2.80675 2.85996C2.93058 2.73599 3.07763 2.63765 3.23949 2.57055C3.40136 2.50345 3.57486 2.46891 3.75008 2.46891C3.9253 2.46891 4.0988 2.50345 4.26067 2.57055C4.42253 2.63765 4.56958 2.73599 4.69341 2.85996L4.73341 2.89996C4.89053 3.05365 5.09009 3.15675 5.30636 3.19596C5.52262 3.23517 5.74567 3.2087 5.94675 3.11996H6.00008C6.19726 3.03545 6.36543 2.89513 6.48388 2.71627C6.60233 2.53741 6.66589 2.32782 6.66675 2.11329V1.99996C6.66675 1.64634 6.80722 1.3072 7.05727 1.05715C7.30732 0.807102 7.64646 0.666626 8.00008 0.666626C8.3537 0.666626 8.69284 0.807102 8.94289 1.05715C9.19294 1.3072 9.33341 1.64634 9.33341 1.99996V2.05996C9.33427 2.27448 9.39784 2.48408 9.51629 2.66294C9.63474 2.8418 9.8029 2.98212 10.0001 3.06663C10.2012 3.15537 10.4242 3.18184 10.6405 3.14263C10.8567 3.10342 11.0563 3.00032 11.2134 2.84663L11.2534 2.80663C11.3772 2.68266 11.5243 2.58431 11.6862 2.51721C11.848 2.45011 12.0215 2.41558 12.1967 2.41558C12.372 2.41558 12.5455 2.45011 12.7073 2.51721C12.8692 2.58431 13.0162 2.68266 13.1401 2.80663C13.264 2.93046 13.3624 3.07751 13.4295 3.23937C13.4966 3.40124 13.5311 3.57474 13.5311 3.74996C13.5311 3.92518 13.4966 4.09868 13.4295 4.26055C13.3624 4.42241 13.264 4.56946 13.1401 4.69329L13.1001 4.73329C12.9464 4.89041 12.8433 5.08997 12.8041 5.30623C12.7649 5.5225 12.7913 5.74555 12.8801 5.94663V5.99996C12.9646 6.19714 13.1049 6.3653 13.2838 6.48375C13.4626 6.6022 13.6722 6.66577 13.8867 6.66663H14.0001C14.3537 6.66663 14.6928 6.8071 14.9429 7.05715C15.1929 7.3072 15.3334 7.64634 15.3334 7.99996C15.3334 8.35358 15.1929 8.69272 14.9429 8.94277C14.6928 9.19282 14.3537 9.33329 14.0001 9.33329H13.9401C13.7256 9.33415 13.516 9.39771 13.3371 9.51616C13.1582 9.63461 13.0179 9.80278 12.9334 9.99996V9.99996Z" stroke="#FBFAFF" stroke-width="1.6" stroke-linecap="square"/>
</g>
<defs>
<clipPath id="clip0">
<rect width="16" height="16" fill="white"/>
</clipPath>
</defs>
</svg>
